<mxfile host="app.diagrams.net" agent="Mozilla/5.0 (Windows NT 10.0; Win64; x64) AppleWebKit/537.36 (KHTML, like Gecko) Chrome/127.0.0.0 Safari/537.36" version="24.7.6">
  <diagram name="PC" id="uQ277sjrtyASU0mpIIaN">
    <mxGraphModel dx="2284" dy="778" grid="1" gridSize="10" guides="1" tooltips="1" connect="1" arrows="1" fold="1" page="1" pageScale="1" pageWidth="850" pageHeight="1100" math="0" shadow="0">
      <root>
        <mxCell id="0" />
        <mxCell id="1" parent="0" />
        <mxCell id="hCddaSegs4oxEtPI0You-1" value="Facture" style="rounded=1;whiteSpace=wrap;html=1;verticalAlign=top;fontStyle=1;fillColor=#d5e8d4;strokeColor=#82b366;" vertex="1" parent="1">
          <mxGeometry x="70" y="170" width="150" height="300" as="geometry" />
        </mxCell>
        <mxCell id="hCddaSegs4oxEtPI0You-2" value="&lt;span style=&quot;font-weight:bold&quot;&gt;&amp;nbsp;&lt;/span&gt;Emite la&lt;br/&gt;factura" style="rounded=1;whiteSpace=wrap;html=1;" vertex="1" parent="1">
          <mxGeometry x="85" y="240" width="120" height="60" as="geometry" />
        </mxCell>
        <mxCell id="hCddaSegs4oxEtPI0You-3" value="" style="html=1;verticalLabelPosition=bottom;align=center;labelBackgroundColor=#ffffff;verticalAlign=top;strokeWidth=2;strokeColor=#0080F0;shadow=0;dashed=0;shape=mxgraph.ios7.icons.mail;" vertex="1" parent="1">
          <mxGeometry x="290" y="284" width="30" height="16.5" as="geometry" />
        </mxCell>
        <mxCell id="hCddaSegs4oxEtPI0You-4" style="edgeStyle=orthogonalEdgeStyle;rounded=0;orthogonalLoop=1;jettySize=auto;html=1;entryX=0;entryY=0.545;entryDx=0;entryDy=0;entryPerimeter=0;" edge="1" parent="1" source="hCddaSegs4oxEtPI0You-2" target="hCddaSegs4oxEtPI0You-3">
          <mxGeometry relative="1" as="geometry" />
        </mxCell>
        <mxCell id="hCddaSegs4oxEtPI0You-5" value="SAP - SD" style="rounded=1;whiteSpace=wrap;html=1;verticalAlign=top;fontStyle=1;fillColor=#dae8fc;strokeColor=#6c8ebf;" vertex="1" parent="1">
          <mxGeometry x="-160" y="170" width="150" height="300" as="geometry" />
        </mxCell>
        <mxCell id="hCddaSegs4oxEtPI0You-7" style="edgeStyle=orthogonalEdgeStyle;rounded=0;orthogonalLoop=1;jettySize=auto;html=1;entryX=0;entryY=0.5;entryDx=0;entryDy=0;" edge="1" parent="1" source="hCddaSegs4oxEtPI0You-6" target="hCddaSegs4oxEtPI0You-2">
          <mxGeometry relative="1" as="geometry" />
        </mxCell>
        <mxCell id="hCddaSegs4oxEtPI0You-6" value="Genera Factura" style="rounded=1;whiteSpace=wrap;html=1;" vertex="1" parent="1">
          <mxGeometry x="-145" y="240" width="120" height="60" as="geometry" />
        </mxCell>
      </root>
    </mxGraphModel>
  </diagram>
</mxfile>
